<svg width="750" height="500" viewBox="0 0 750 500" fill="none" xmlns="http://www.w3.org/2000/svg">
<path d="M666.949 150.27L657.379 196.62L651.219 190.61L640.739 198.09L632.729 188.14L614.769 201.2L599.419 175.53L582.299 185.56L575.509 176.2L553.769 188.45L547.229 174.44L562.469 100.63L644.169 117.5L666.949 150.27Z" fill="#EBEBEB"/>
<path d="M644.169 117.5L666.949 150.27L638.609 144.42L644.169 117.5Z" fill="#DBDBDB"/>
<path d="M655.34 205.88L641.31 273.88L531.26 251.16L545.19 183.71L551.73 197.71L573.48 185.46L580.26 194.82L597.39 184.8L612.73 210.47L630.7 197.41L638.7 207.35L649.19 199.88L655.34 205.88Z" fill="#EBEBEB"/>
<path d="M497.83 197.91L385.68 204.85L376.77 60.89L460.05 55.73L490.62 81.38L497.83 197.91Z" fill="#EBEBEB"/>
<path d="M460.049 55.73L490.619 81.38L461.739 83.17L460.049 55.73Z" fill="#DBDBDB"/>
<path d="M429 152.6L428.56 149.35C427.43 142.62 429.27 135.09 435.12 127.22C440.4 120.22 443.26 115.22 442.94 109.54C442.58 103.14 438.33 99.1 430.42 99.42C425.899 99.6548 421.557 101.259 417.97 104.02L414.52 96.29C418.52 93.04 425.52 90.64 432.17 90.29C446.6 89.49 453.62 98.03 454.17 107.56C454.65 116.09 450.23 122.5 444.61 129.99C439.45 136.82 437.76 142.45 438.49 148.82L438.8 152.08L429 152.6ZM427.22 170.31C426.96 165.67 429.91 162.23 434.3 161.99C438.69 161.75 441.89 164.83 442.15 169.48C442.39 173.87 439.7 177.41 435.06 177.67C430.63 177.92 427.43 174.7 427.18 170.31H427.22Z" fill="#DBDBDB"/>
<path d="M148.48 128.11L137.2 123L135.63 126.45C135.398 126.943 135.036 127.364 134.584 127.667C134.131 127.97 133.604 128.144 133.06 128.17C132.44 128.19 131.822 128.25 131.21 128.35C130.673 128.43 130.124 128.362 129.622 128.154C129.12 127.947 128.684 127.606 128.36 127.17L126.15 124.08L116.08 131.3L118.29 134.39C118.597 134.836 118.778 135.357 118.813 135.897C118.849 136.438 118.737 136.978 118.49 137.46C118.205 138.01 117.948 138.574 117.72 139.15C117.522 139.658 117.189 140.102 116.757 140.435C116.326 140.768 115.812 140.977 115.27 141.04L111.5 141.41L112.71 153.74L116.5 153.36C117.044 153.317 117.589 153.422 118.077 153.665C118.565 153.908 118.977 154.28 119.27 154.74C119.43 155 119.6 155.25 119.78 155.5C119.96 155.75 120.14 155.99 120.33 156.23C120.675 156.65 120.897 157.157 120.971 157.696C121.045 158.234 120.969 158.782 120.75 159.28L119.17 162.76L130.46 167.88L132.03 164.41C132.264 163.917 132.628 163.498 133.082 163.197C133.537 162.895 134.065 162.724 134.61 162.7C135.223 162.675 135.834 162.615 136.44 162.52C136.977 162.44 137.526 162.508 138.028 162.716C138.53 162.923 138.966 163.264 139.29 163.7L141.5 166.79L151.58 159.57L149.37 156.48C149.053 156.038 148.866 155.516 148.831 154.974C148.796 154.431 148.913 153.889 149.17 153.41C149.449 152.863 149.699 152.302 149.92 151.73C150.112 151.218 150.443 150.77 150.876 150.437C151.309 150.103 151.826 149.896 152.37 149.84L156.16 149.46L154.94 137.13L151.15 137.5C150.61 137.547 150.067 137.445 149.582 137.203C149.096 136.961 148.687 136.59 148.4 136.13C148.23 135.87 148.06 135.62 147.88 135.37C147.7 135.12 147.52 134.87 147.33 134.64C146.987 134.215 146.767 133.704 146.693 133.163C146.619 132.622 146.694 132.071 146.91 131.57L148.48 128.11ZM142.08 139.52C143.249 141.152 143.909 143.094 143.974 145.1C144.04 147.107 143.509 149.088 142.449 150.793C141.388 152.498 139.846 153.85 138.018 154.678C136.189 155.506 134.156 155.774 132.175 155.446C130.194 155.119 128.355 154.212 126.89 152.839C125.425 151.466 124.4 149.69 123.944 147.735C123.489 145.779 123.623 143.733 124.331 141.854C125.039 139.976 126.288 138.349 127.92 137.18C130.108 135.613 132.829 134.979 135.485 135.418C138.14 135.857 140.512 137.332 142.08 139.52Z" fill="#EBEBEB"/>
<path d="M658.38 291.71L650.86 296.05L652.19 298.35C652.389 298.68 652.488 299.06 652.475 299.445C652.463 299.83 652.339 300.203 652.12 300.52C651.89 300.88 651.67 301.25 651.47 301.64C651.306 301.985 651.046 302.276 650.722 302.478C650.397 302.68 650.022 302.785 649.64 302.78H647V311.47H649.66C650.042 311.465 650.417 311.57 650.742 311.772C651.066 311.974 651.326 312.265 651.49 312.61C651.69 313 651.91 313.37 652.14 313.73C652.359 314.047 652.483 314.42 652.495 314.805C652.507 315.19 652.409 315.57 652.21 315.9L650.88 318.2L658.4 322.54L659.74 320.23C659.934 319.902 660.216 319.635 660.553 319.459C660.89 319.282 661.27 319.203 661.65 319.23H662.93C663.31 319.204 663.689 319.284 664.026 319.46C664.363 319.637 664.645 319.903 664.84 320.23L666.18 322.55L673.69 318.21L672.36 315.9C672.171 315.568 672.078 315.19 672.092 314.809C672.106 314.427 672.227 314.057 672.44 313.74C672.67 313.38 672.89 313 673.09 312.62C673.254 312.275 673.514 311.984 673.838 311.782C674.163 311.58 674.538 311.475 674.92 311.48H677.58V302.79H674.9C674.518 302.795 674.143 302.69 673.818 302.488C673.494 302.286 673.234 301.995 673.07 301.65C672.87 301.27 672.65 300.89 672.42 300.53C672.207 300.213 672.086 299.843 672.072 299.461C672.058 299.08 672.151 298.702 672.34 298.37L673.67 296.06L666.16 291.72L664.82 294C664.626 294.328 664.344 294.595 664.007 294.771C663.67 294.948 663.29 295.027 662.91 295H662.27H661.63C661.249 295.026 660.868 294.946 660.53 294.77C660.191 294.593 659.907 294.327 659.71 294L658.38 291.71ZM662.27 300.01C663.679 300.008 665.057 300.424 666.229 301.206C667.402 301.987 668.316 303.099 668.856 304.401C669.396 305.702 669.538 307.135 669.264 308.517C668.989 309.899 668.311 311.168 667.315 312.165C666.318 313.161 665.049 313.839 663.667 314.114C662.284 314.388 660.852 314.246 659.551 313.706C658.249 313.166 657.137 312.252 656.356 311.079C655.574 309.907 655.158 308.529 655.16 307.12C655.159 306.185 655.342 305.26 655.698 304.396C656.055 303.532 656.579 302.747 657.239 302.086C657.899 301.425 658.684 300.9 659.547 300.542C660.41 300.184 661.335 300 662.27 300V300.01Z" fill="#EBEBEB"/>
<path d="M171.298 91.16L164.408 96.44L165.998 98.55C166.236 98.8507 166.381 99.2131 166.419 99.5942C166.456 99.9754 166.383 100.359 166.208 100.7C166.017 101.089 165.85 101.49 165.708 101.9C165.585 102.261 165.364 102.581 165.069 102.823C164.773 103.065 164.417 103.22 164.038 103.27L161.398 103.61L162.518 112.22L165.158 111.88C165.543 111.826 165.934 111.883 166.288 112.042C166.642 112.201 166.944 112.457 167.158 112.78C167.399 113.128 167.66 113.462 167.938 113.78C168.196 114.063 168.367 114.415 168.431 114.792C168.495 115.17 168.449 115.558 168.298 115.91L167.298 118.37L175.298 121.7L176.298 119.24C176.447 118.887 176.692 118.583 177.005 118.362C177.318 118.141 177.686 118.012 178.068 117.99L178.708 117.92L179.338 117.82C179.709 117.75 180.091 117.783 180.443 117.916C180.796 118.048 181.105 118.274 181.338 118.57L182.968 120.7L189.858 115.42L188.248 113.31C188.016 113.005 187.873 112.642 187.836 112.26C187.799 111.878 187.869 111.494 188.038 111.15C188.228 110.763 188.395 110.366 188.538 109.96C188.662 109.599 188.883 109.279 189.178 109.037C189.473 108.795 189.83 108.64 190.208 108.59L192.848 108.25L191.728 99.64L189.088 99.98C188.705 100.035 188.314 99.9801 187.96 99.8227C187.607 99.6653 187.304 99.4113 187.088 99.09C186.838 98.73 186.578 98.39 186.298 98.09C186.065 97.8006 185.915 97.4539 185.862 97.0862C185.809 96.7184 185.856 96.3433 185.998 96L186.998 93.54L178.998 90.21L177.998 92.67C177.848 93.0216 177.603 93.3245 177.29 93.5451C176.978 93.7658 176.61 93.8955 176.228 93.92L175.588 93.98L174.998 94C174.628 94.0698 174.246 94.0367 173.894 93.9045C173.541 93.7723 173.231 93.5459 172.998 93.25L171.298 91.16ZM176.228 98.89C177.621 98.711 179.036 98.9484 180.294 99.5725C181.553 100.197 182.598 101.179 183.298 102.397C183.998 103.614 184.322 105.012 184.229 106.413C184.136 107.814 183.63 109.157 182.775 110.271C181.92 111.385 180.754 112.221 179.425 112.673C178.095 113.126 176.661 113.174 175.304 112.812C173.947 112.451 172.727 111.695 171.799 110.641C170.871 109.587 170.276 108.282 170.088 106.89C169.963 105.961 170.023 105.017 170.265 104.111C170.506 103.206 170.924 102.357 171.495 101.613C172.065 100.87 172.777 100.246 173.59 99.7789C174.402 99.3116 175.299 99.0095 176.228 98.89Z" fill="#EBEBEB"/>
<path d="M119.82 316.78C120.195 307.113 120.062 297.433 119.42 287.78C117.989 267.847 114.949 248.063 110.33 228.62C107.79 217.68 104.67 206.92 101.41 196.17C101.31 195.84 100.79 195.93 100.88 196.27C110.95 234.17 119.21 273.27 118.64 312.67C118.48 323.67 117.2 334.52 116.16 345.48C116.16 345.77 116.61 345.89 116.68 345.59C118.75 336.18 119.43 326.36 119.82 316.78Z" fill="#EBEBEB"/>
<path d="M100.878 196.24C100.878 196.24 85.6382 234.94 89.0482 244C92.4582 253.06 99.4982 255 99.4982 255C99.4982 255 90.1682 268.32 96.6882 280.81C103.208 293.3 117.688 292.71 118.688 306.87C118.658 306.94 119.458 247.73 100.878 196.24Z" fill="#EBEBEB"/>
<path d="M116.999 282.49C117.023 282.426 117.023 282.354 116.999 282.29C114.998 255.869 110.041 229.756 102.219 204.44C102.219 204.37 102.069 204.39 102.089 204.44C105.109 215.773 107.775 227.153 110.089 238.58C108.04 236.639 105.537 235.243 102.809 234.52C102.809 234.52 102.729 234.58 102.809 234.6C105.675 235.65 108.251 237.364 110.329 239.6C110.769 241.85 111.209 244.09 111.619 246.34C108.209 242.53 103.489 240.64 98.7587 238.84C98.748 238.845 98.7389 238.852 98.7325 238.862C98.7261 238.872 98.7227 238.883 98.7227 238.895C98.7227 238.907 98.7261 238.918 98.7325 238.928C98.7389 238.938 98.748 238.945 98.7587 238.95C103.689 240.95 108.589 243.53 111.929 247.78C113.089 254.2 114.109 260.643 114.989 267.11C112.527 264.531 109.369 262.721 105.899 261.9C105.789 261.9 105.729 262.03 105.839 262.06C109.403 263.11 112.586 265.174 114.999 268H115.059C115.359 270.267 115.645 272.543 115.919 274.83C114.014 273.218 111.863 271.922 109.549 270.99C109.489 270.99 109.449 271.06 109.549 271.08C111.911 272.103 114.074 273.535 115.939 275.31C115.939 275.31 115.989 275.31 116.019 275.31C116.269 277.48 116.519 279.65 116.739 281.82C113.305 277.669 108.848 274.484 103.809 272.58C103.787 272.58 103.767 272.588 103.752 272.603C103.737 272.618 103.729 272.639 103.729 272.66C103.729 272.681 103.737 272.702 103.752 272.717C103.767 272.732 103.787 272.74 103.809 272.74C108.785 274.933 113.156 278.299 116.549 282.55C116.586 282.597 116.636 282.631 116.693 282.649C116.75 282.667 116.811 282.667 116.869 282.65C117.199 285.98 117.499 289.31 117.739 292.65C117.739 292.7 117.819 292.7 117.819 292.65C117.559 289.297 117.285 285.91 116.999 282.49Z" fill="white"/>
<path d="M104.749 230.71C101.989 228.992 98.8363 228.008 95.5893 227.85C95.5734 227.85 95.5581 227.856 95.5469 227.868C95.5356 227.879 95.5293 227.894 95.5293 227.91C95.5293 227.926 95.5356 227.941 95.5469 227.952C95.5581 227.964 95.5734 227.97 95.5893 227.97C98.7286 228.565 101.775 229.574 104.649 230.97C104.769 231 104.859 230.79 104.749 230.71Z" fill="white"/>
<path d="M106.6 271.68C104.479 270.463 102.143 269.665 99.7201 269.33C99.6401 269.33 99.6301 269.44 99.7201 269.46C102.086 269.935 104.375 270.736 106.52 271.84C106.61 271.89 106.69 271.73 106.6 271.68Z" fill="white"/>
<path d="M159.898 244.67C153.451 249.126 147.53 254.3 142.248 260.09C136.801 266.221 132.6 273.354 129.878 281.09C124.086 297.208 120.972 314.166 120.658 331.29C120.464 340.773 121.374 350.247 123.368 359.52C123.385 359.587 123.426 359.646 123.484 359.684C123.543 359.721 123.613 359.735 123.681 359.722C123.749 359.709 123.81 359.671 123.85 359.615C123.891 359.558 123.908 359.489 123.898 359.42C121.416 343.056 121.511 326.405 124.178 310.07C126.798 294.07 130.908 276.65 141.088 263.64C146.628 256.55 153.538 250.98 160.368 245.22C160.728 244.9 160.268 244.41 159.898 244.67Z" fill="#EBEBEB"/>
<path d="M122.898 319.75C126.568 313.814 130.881 308.301 135.758 303.31C143.388 295.68 149.808 290.26 150.808 285.22C151.808 280.18 143.168 276.46 143.168 276.46C143.168 276.46 153.718 278.36 156.608 273.93C159.498 269.5 160.888 243.84 160.888 243.84C160.888 243.84 141.688 257.55 132.738 276.77C123.788 295.99 122.898 319.75 122.898 319.75Z" fill="#EBEBEB"/>
<path d="M153.999 267.91C152.735 267.722 151.453 267.678 150.179 267.78C150.029 267.78 150.039 268.04 150.179 268.05C151.439 268.05 152.709 267.99 153.969 268.05C153.984 268.046 153.997 268.039 154.007 268.028C154.017 268.017 154.024 268.004 154.027 267.989C154.031 267.975 154.03 267.96 154.025 267.946C154.02 267.932 154.011 267.919 153.999 267.91Z" fill="white"/>
<path d="M140.209 292.8C138.182 292.841 136.177 293.241 134.289 293.98C134.289 293.98 134.289 294.08 134.289 294.07C136.289 293.6 138.219 293.41 140.199 293.07C140.225 293.059 140.247 293.04 140.263 293.017C140.279 292.994 140.288 292.966 140.289 292.938C140.29 292.91 140.283 292.882 140.269 292.858C140.255 292.833 140.234 292.813 140.209 292.8Z" fill="white"/>
<path d="M136.07 284.2C135.228 284.193 134.388 284.267 133.56 284.42C133.545 284.426 133.531 284.436 133.522 284.449C133.513 284.463 133.508 284.479 133.508 284.495C133.508 284.511 133.513 284.527 133.522 284.541C133.531 284.554 133.545 284.564 133.56 284.57C134.398 284.618 135.239 284.582 136.07 284.46C136.104 284.46 136.138 284.446 136.162 284.422C136.186 284.398 136.2 284.364 136.2 284.33C136.2 284.295 136.186 284.262 136.162 284.238C136.138 284.214 136.104 284.2 136.07 284.2Z" fill="white"/>
<path d="M66.6089 271.89C72.8581 274.009 78.8465 276.83 84.4589 280.3C90.2823 284 95.3323 288.796 99.3289 294.42C107.738 306.125 114.176 319.127 118.389 332.91C120.738 340.542 122.188 348.422 122.709 356.39C122.698 356.442 122.67 356.488 122.629 356.521C122.588 356.554 122.537 356.572 122.484 356.572C122.431 356.572 122.38 356.554 122.339 356.521C122.298 356.488 122.27 356.442 122.259 356.39C120.494 342.574 116.573 329.121 110.639 316.52C104.809 304.17 97.4589 291.03 86.2189 282.85C80.0989 278.4 73.2189 275.48 66.3589 272.4C65.9989 272.28 66.2489 271.77 66.6089 271.89Z" fill="#EBEBEB"/>
<path d="M113.909 324.1C109.565 320.147 104.799 316.683 99.6991 313.77C91.7591 309.36 85.3091 306.46 83.3391 302.61C81.3691 298.76 87.4991 293.76 87.4991 293.76C87.4991 293.76 79.3991 297.76 76.0391 294.81C72.6791 291.86 65.6191 271.46 65.6191 271.46C65.6191 271.46 84.3291 278.11 95.9991 291.6C107.669 305.09 113.909 324.1 113.909 324.1Z" fill="#EBEBEB"/>
<path d="M98.3794 305.32C96.5399 305.192 94.6929 305.419 92.9395 305.99C92.9395 305.99 92.9395 306.08 92.9395 306.07C94.7283 305.763 96.5357 305.576 98.3494 305.51C98.4794 305.51 98.5094 305.33 98.3794 305.32Z" fill="white"/>
<path d="M82.059 283.92C81.2199 283.851 80.3753 283.899 79.549 284.06C79.459 284.06 79.489 284.22 79.549 284.21C80.379 284.12 81.189 284.15 82.009 284.13C82.0345 284.131 82.0595 284.123 82.0798 284.108C82.1001 284.092 82.1145 284.07 82.1204 284.046C82.1263 284.021 82.1234 283.995 82.1122 283.972C82.101 283.949 82.0822 283.931 82.059 283.92Z" fill="white"/>
<path d="M138.039 382.18H95.8086L101.829 338.07L103.369 326.76H130.479L132.019 338.07L138.039 382.18Z" fill="#DBDBDB"/>
<path d="M132.02 338.07H101.83L103.37 326.76H130.48L132.02 338.07Z" fill="#C7C7C7"/>
<path d="M134.348 322.84H99.4883V332.42H134.348V322.84Z" fill="#DBDBDB"/>
<path d="M68.9609 382.18L144.971 381.94L220.981 381.85L373.001 381.68L525.021 381.85L601.031 381.94L677.041 382.18L601.031 382.43L525.021 382.51L373.001 382.68L220.981 382.51L144.971 382.42L68.9609 382.18Z" fill="#434343"/>
<path d="M375 456.71C533.362 456.71 661.74 442.643 661.74 425.29C661.74 407.937 533.362 393.87 375 393.87C216.638 393.87 88.2598 407.937 88.2598 425.29C88.2598 442.643 216.638 456.71 375 456.71Z" fill="#EBEBEB"/>
<path d="M308.25 420.09C305.92 420.88 239.11 421.09 236.55 419.51C235.55 418.91 234.98 409.18 234.55 397.4C234.46 394.86 234.39 392.23 234.33 389.57L229 353.93L273.67 353.64L277.88 389.29L277.71 397.13C277.71 397.13 303.33 408.48 305.95 410.54C308.57 412.6 310.58 419.3 308.25 420.09Z" fill="#EB9481"/>
<path d="M308.249 420.09C305.919 420.88 239.109 421.09 236.549 419.51C235.369 418.77 234.729 404.56 234.369 389.57L277.829 389.29L277.659 397.13C277.659 397.13 303.279 408.48 305.899 410.54C308.519 412.6 310.579 419.3 308.249 420.09Z" fill="white"/>
<path d="M308.249 420.09C305.919 420.88 239.109 421.09 236.549 419.51C235.549 418.91 234.979 409.18 234.549 397.4L277.619 397.13C277.619 397.13 303.239 408.48 305.859 410.54C308.479 412.6 310.579 419.3 308.249 420.09Z" fill="#A6A6A6"/>
<path d="M307.28 417.42C296.08 417.18 250.88 417.29 239.79 417.91C239.7 417.91 239.7 417.97 239.79 417.98C250.89 418.45 296.09 417.98 307.28 417.6C307.52 417.59 307.52 417.42 307.28 417.42Z" fill="#434343"/>
<path d="M301.59 408.15C300.344 408.122 299.107 408.353 297.955 408.828C296.804 409.303 295.763 410.012 294.9 410.91C293.326 412.513 292.437 414.664 292.42 416.91C292.42 416.98 292.54 416.98 292.55 416.91C292.922 414.698 293.999 412.665 295.621 411.115C297.243 409.565 299.323 408.581 301.55 408.31C301.571 408.315 301.594 408.312 301.612 408.301C301.631 408.29 301.645 408.271 301.65 408.25C301.655 408.229 301.652 408.206 301.641 408.188C301.629 408.169 301.611 408.155 301.59 408.15Z" fill="#434343"/>
<path d="M282 398.23C277.52 398.18 272.33 399.78 269.55 403.46C269.45 403.6 269.65 403.75 269.78 403.68C273.695 401.614 277.818 399.971 282.08 398.78C282.146 398.762 282.203 398.72 282.241 398.663C282.278 398.606 282.294 398.537 282.284 398.47C282.274 398.402 282.24 398.34 282.187 398.296C282.135 398.252 282.069 398.229 282 398.23Z" fill="#434343"/>
<path d="M285.48 399.56C280.99 399.56 275.8 401.12 273.03 404.79C272.92 404.94 273.12 405.09 273.26 405.02C277.168 402.947 281.289 401.3 285.55 400.11C285.615 400.092 285.671 400.051 285.709 399.995C285.746 399.939 285.762 399.872 285.754 399.805C285.745 399.738 285.713 399.676 285.662 399.631C285.612 399.586 285.547 399.561 285.48 399.56Z" fill="#434343"/>
<path d="M288.94 400.9C284.46 400.9 279.27 402.45 276.49 406.13C276.39 406.27 276.59 406.42 276.72 406.35C280.634 404.284 284.757 402.641 289.02 401.45C289.086 401.432 289.143 401.39 289.18 401.333C289.218 401.276 289.233 401.207 289.223 401.14C289.213 401.072 289.179 401.01 289.127 400.966C289.075 400.922 289.008 400.899 288.94 400.9Z" fill="#434343"/>
<path d="M292.411 402.24C287.921 402.19 282.73 403.79 279.96 407.47C279.85 407.61 280.061 407.76 280.191 407.69C284.104 405.622 288.227 403.98 292.49 402.79C292.556 402.772 292.613 402.73 292.651 402.673C292.688 402.616 292.704 402.547 292.694 402.48C292.684 402.412 292.65 402.35 292.597 402.306C292.545 402.262 292.479 402.239 292.411 402.24Z" fill="#434343"/>
<path d="M242.609 407.26C237.609 407.26 237.609 415.11 242.609 415.08C247.609 415.05 247.649 407.23 242.609 407.26Z" fill="#434343"/>
<path d="M286.809 386.25C284.539 384.37 281.679 386.25 280.289 388.18C277.975 391.591 276.596 395.55 276.289 399.66C276.289 399.75 276.359 399.79 276.429 399.79C276.447 399.875 276.485 399.954 276.539 400.021C276.594 400.088 276.664 400.141 276.743 400.175C276.823 400.209 276.909 400.224 276.995 400.218C277.082 400.212 277.165 400.185 277.239 400.14C280.419 397.93 284.099 395.95 286.509 392.82C287.879 391 288.999 388 286.809 386.25ZM281.349 395.79C279.809 396.92 278.219 397.97 276.719 399.16C277.519 396.92 278.209 394.66 279.229 392.5C279.7 391.464 280.242 390.462 280.849 389.5C281.849 388.01 286.209 384.25 286.669 389.12C286.929 391.79 283.179 394.45 281.349 395.79Z" fill="#434343"/>
<path d="M265.129 401.36C269.029 401.94 273.059 400.82 276.889 400.21C276.972 400.188 277.049 400.148 277.114 400.091C277.178 400.034 277.229 399.963 277.261 399.883C277.293 399.803 277.306 399.717 277.298 399.632C277.291 399.546 277.264 399.463 277.219 399.39C277.234 399.379 277.245 399.364 277.254 399.348C277.262 399.332 277.266 399.313 277.266 399.295C277.266 399.277 277.262 399.259 277.254 399.242C277.245 399.226 277.234 399.211 277.219 399.2C274.142 396.456 270.396 394.569 266.359 393.73C263.999 393.28 260.659 393.93 260.359 396.86C259.999 399.62 262.849 401 265.129 401.36ZM262.409 398.82C259.409 394.98 265.139 394.65 266.859 395.05C267.975 395.329 269.071 395.683 270.139 396.11C272.326 397.017 274.466 398.035 276.549 399.16C274.649 399.35 272.779 399.69 270.889 399.95C268.629 400.25 264.089 400.93 262.409 398.82Z" fill="#434343"/>
<path d="M163.32 189.2C163.32 189.2 215.19 277.44 216.58 283.64C218.71 293.16 230 387.17 230 387.17L284 386.17C284 386.17 274.7 303.28 265.89 275.97C259.55 256.3 213.77 191.06 213.77 191.06L163.32 189.2Z" fill="#434343"/>
<path d="M279.09 377.93C271.34 377.87 243.87 377.56 233.55 378.52C233.47 378.52 233.48 378.66 233.55 378.67C237.1 379.18 271.33 378.39 279.08 378.14C279.097 378.146 279.114 378.148 279.131 378.146C279.148 378.144 279.165 378.138 279.179 378.128C279.193 378.119 279.205 378.106 279.214 378.091C279.222 378.076 279.227 378.059 279.228 378.042C279.229 378.025 279.225 378.007 279.218 377.992C279.211 377.976 279.201 377.962 279.187 377.951C279.174 377.94 279.158 377.933 279.141 377.929C279.125 377.925 279.107 377.926 279.09 377.93Z" fill="#434343"/>
<path d="M172.17 197.3C175.57 202.63 179.17 207.85 182.63 213.14C186.09 218.43 189.57 223.72 193 229C199.84 239.667 206.507 250.403 213 261.21C216.169 266.219 218.88 271.504 221.1 277C223.127 282.497 224.65 288.167 225.65 293.94C226.71 299.73 227.41 305.58 228.06 311.43C228.727 317.65 229.424 323.873 230.15 330.1C231.57 342.84 232.994 355.58 234.42 368.32C234.59 369.88 234.76 371.44 234.92 373.01C234.92 373.24 234.53 373.28 234.5 373.01C232.91 360.36 231.59 347.66 230.15 335.01C229.43 328.697 228.714 322.387 228 316.08C227.33 310.21 226.69 304.33 225.78 298.5C224.945 292.745 223.675 287.062 221.98 281.5C220.113 275.74 217.611 270.206 214.52 265C208.27 254.21 201.65 243.61 195.03 233C188.41 222.39 181.61 211.69 174.63 201.21C173.77 199.92 172.9 198.63 172 197.36C171.93 197.29 172.11 197.2 172.17 197.3Z" fill="#434343"/>
<path d="M180.32 425.29C177.86 425.14 114.32 399.4 112.56 396.96C112.481 396.816 112.447 396.653 112.46 396.49C112.46 394.3 116.87 386.66 120.55 376.62C120.78 375.98 122.42 373 124.69 368.99C131 358 142 339.07 142 339.07L183.53 355.57L163.65 385.32L160.56 392.52C160.56 392.52 180.05 412.67 181.69 415.52C183.33 418.37 182.77 425.43 180.32 425.29Z" fill="#EB9481"/>
<path d="M180.32 425.29C177.86 425.14 114.32 399.4 112.56 396.96C112.481 396.816 112.447 396.653 112.46 396.49C112.46 394.3 116.87 386.66 120.55 376.62C120.78 375.98 122.42 373 124.69 368.99L163.69 385.32L160.6 392.52C160.6 392.52 180.09 412.67 181.73 415.52C183.37 418.37 182.77 425.43 180.32 425.29Z" fill="white"/>
<path d="M180.32 425.29C177.86 425.14 114.32 399.4 112.56 396.96C111.88 396.03 114.72 387.36 120.56 376.62L160.56 392.53C160.56 392.53 180.05 412.66 181.7 415.53C183.35 418.4 182.77 425.43 180.32 425.29Z" fill="#A6A6A6"/>
<path d="M180.421 422.45C170.131 418.03 128.191 401.17 117.681 397.59C117.591 397.59 117.571 397.59 117.681 397.65C127.791 402.25 169.861 418.77 180.381 422.65C180.581 422.7 180.641 422.54 180.421 422.45Z" fill="#434343"/>
<path d="M178.62 411.72C177.479 411.219 176.246 410.96 175 410.96C173.754 410.96 172.521 411.219 171.38 411.72C169.328 412.618 167.702 414.273 166.84 416.34C166.84 416.4 166.93 416.45 166.96 416.39C168.139 414.473 169.907 412.989 172 412.161C174.094 411.334 176.399 411.207 178.57 411.8C178.587 411.795 178.601 411.785 178.61 411.77C178.62 411.755 178.623 411.737 178.62 411.72Z" fill="#434343"/>
<path d="M164.19 395.18C160.06 393.45 154.64 392.99 150.69 395.36C150.54 395.45 150.69 395.66 150.82 395.65C155.223 395.203 159.661 395.227 164.06 395.72C164.127 395.727 164.195 395.71 164.251 395.671C164.307 395.631 164.346 395.573 164.362 395.507C164.378 395.441 164.369 395.371 164.338 395.311C164.306 395.251 164.253 395.204 164.19 395.18Z" fill="#434343"/>
<path d="M166.901 397.72C162.771 395.99 157.351 395.53 153.401 397.9C153.251 397.99 153.401 398.2 153.531 398.19C157.934 397.738 162.373 397.762 166.771 398.26C166.838 398.267 166.906 398.25 166.962 398.211C167.018 398.172 167.057 398.113 167.073 398.047C167.089 397.981 167.08 397.911 167.048 397.851C167.017 397.791 166.964 397.744 166.901 397.72Z" fill="#434343"/>
<path d="M169.62 400.26C165.48 398.53 160.06 398.07 156.12 400.44C155.96 400.53 156.12 400.74 156.24 400.73C160.643 400.278 165.082 400.302 169.48 400.8C169.549 400.812 169.62 400.797 169.679 400.759C169.737 400.721 169.78 400.662 169.797 400.594C169.815 400.526 169.807 400.454 169.774 400.393C169.741 400.331 169.686 400.283 169.62 400.26Z" fill="#434343"/>
<path d="M172.329 402.8C168.189 401.07 162.779 400.61 158.829 402.97C158.669 403.07 158.829 403.28 158.949 403.27C163.352 402.818 167.791 402.842 172.189 403.34C172.258 403.352 172.329 403.337 172.388 403.299C172.446 403.261 172.489 403.202 172.506 403.134C172.524 403.066 172.515 402.994 172.483 402.933C172.45 402.871 172.395 402.823 172.329 402.8Z" fill="#434343"/>
<path d="M124.279 388.77C119.609 386.91 116.709 394.18 121.399 396.04C126.089 397.9 128.999 390.63 124.279 388.77Z" fill="#434343"/>
<path d="M173.14 385.88C171.73 383.29 168.4 383.93 166.37 385.22C162.95 387.511 160.192 390.659 158.37 394.35C158.362 394.366 158.358 394.384 158.357 394.402C158.357 394.42 158.361 394.438 158.369 394.454C158.377 394.471 158.388 394.485 158.402 394.496C158.416 394.508 158.432 394.516 158.45 394.52C158.45 394.85 158.67 395.24 159.06 395.16C162.85 394.29 167 393.84 170.4 391.84C172.35 390.68 174.47 388.33 173.14 385.88ZM164.49 392.67C162.64 393.14 160.78 393.52 158.95 394.06C160.464 392.236 162.069 390.491 163.76 388.83C164.592 388.037 165.478 387.302 166.41 386.63C167.86 385.63 173.34 383.78 171.94 388.47C171.17 391.06 166.7 392.11 164.49 392.67Z" fill="#434343"/>
<path d="M147.37 391.75C150.77 393.75 154.92 394.22 158.7 395.1C159.09 395.19 159.35 394.8 159.32 394.46C159.339 394.458 159.357 394.451 159.372 394.44C159.387 394.429 159.4 394.415 159.408 394.397C159.416 394.38 159.419 394.362 159.418 394.343C159.417 394.324 159.41 394.306 159.4 394.29C157.581 390.592 154.822 387.436 151.4 385.14C149.4 383.84 146.05 383.19 144.63 385.77C143.21 388.35 145.38 390.58 147.37 391.75ZM145.81 388.37C144.42 383.68 149.89 385.54 151.34 386.55C152.271 387.223 153.153 387.962 153.98 388.76C155.668 390.424 157.27 392.173 158.78 394C156.95 393.46 155.09 393.07 153.24 392.6C151 392 146.57 391 145.81 388.37Z" fill="#434343"/>
<path d="M166.881 383.66L120.391 364.89C120.391 364.89 178.031 280.14 178.451 273.83C178.831 268.25 153.511 219.63 152.521 205.46C151.441 190.16 158.801 178.33 166.901 170.98L214.851 191.37C214.851 191.37 209.791 199.46 201.851 203.97C201.851 203.97 226.441 260.17 225.041 277.45C223.641 294.73 166.881 383.66 166.881 383.66Z" fill="#434343"/>
<path d="M168.94 374.82C162.22 371.93 164.19 372.66 157.43 369.82C154.13 368.44 132.43 359.41 129.09 358.66C129.02 358.66 128.97 358.76 129.04 358.8C131.93 360.57 153.81 369.22 157.14 370.54C163.95 373.22 162.02 372.38 168.86 374.98C168.87 374.994 168.883 375.004 168.899 375.011C168.914 375.018 168.932 375.021 168.949 375.02C168.966 375.018 168.982 375.012 168.996 375.003C169.01 374.993 169.021 374.98 169.029 374.965C169.037 374.95 169.04 374.933 169.039 374.916C169.039 374.898 169.034 374.882 169.025 374.867C169.016 374.853 169.003 374.841 168.988 374.833C168.973 374.824 168.957 374.82 168.94 374.82Z" fill="#434343"/>
<path d="M209.709 202.94C204.717 204.104 199.833 205.689 195.109 207.68C195.09 207.687 195.073 207.697 195.058 207.71C195.042 207.724 195.03 207.74 195.021 207.758C195.013 207.776 195.007 207.796 195.006 207.816C195.005 207.836 195.008 207.856 195.014 207.875C195.021 207.894 195.031 207.912 195.044 207.927C195.058 207.942 195.074 207.954 195.092 207.963C195.11 207.972 195.13 207.977 195.15 207.978C195.17 207.979 195.19 207.977 195.209 207.97C200.109 206.54 205.089 205.2 209.909 203.51C210.279 203.38 210.089 202.86 209.709 202.94Z" fill="#434343"/>
<path d="M204.001 201C203.535 201.829 203.124 202.687 202.771 203.57C202.425 204.24 202.212 204.97 202.141 205.72C202.141 205.87 202.341 205.9 202.431 205.81C202.932 205.21 203.337 204.535 203.631 203.81C204.041 203.02 204.461 202.24 204.851 201.43C205.121 200.84 204.311 200.46 204.001 201Z" fill="#434343"/>
<path d="M204.6 196.46C204.9 195.72 205.19 194.99 205.5 194.25C205.81 193.51 206.2 192.75 206.5 191.97C206.5 191.85 206.74 191.97 206.69 192.06C206.39 192.8 206.2 193.58 205.97 194.34C205.74 195.1 205.48 195.86 205.23 196.62C204.76 198.03 204.23 199.43 203.58 200.8C204.366 200.839 205.152 200.703 205.88 200.4C206.623 199.925 207.194 199.224 207.51 198.4C207.93 197.58 208.32 196.74 208.75 195.92C209.279 195.034 209.724 194.099 210.08 193.13C210.08 193.01 210.32 193.13 210.27 193.22C209.618 195.27 208.763 197.249 207.72 199.13C207.27 199.86 206.92 200.63 206.1 200.91C205.212 201.158 204.283 201.223 203.37 201.1C203.25 201.1 203.11 201.1 203.15 200.92C203.559 199.41 204.043 197.922 204.6 196.46Z" fill="#434343"/>
<path d="M202.56 205.8C204.27 209.41 205.77 213.01 207.36 216.61C208.95 220.21 210.36 223.69 211.79 227.27C214.65 234.49 217.21 241.85 219.46 249.27C220.57 252.95 221.6 256.66 222.52 260.4C223.533 264.128 224.275 267.925 224.74 271.76C225.141 275.589 224.802 279.459 223.74 283.16C222.637 286.818 221.222 290.374 219.51 293.79C218.46 295.95 218.11 295.66 218.61 294.57C220.04 291.47 223.79 282.08 223.52 274.19C223.301 270.413 222.719 266.665 221.78 263C220.907 259.22 219.923 255.47 218.83 251.75C216.7 244.41 214.17 237.22 211.57 230.04C210.11 226.04 208.57 222.04 207.07 218.04C205.57 214.04 204.07 210.36 202.39 205.94C202.34 205.76 202.51 205.69 202.56 205.8Z" fill="#434343"/>
<path d="M167.269 193.87C168.099 193.56 169.269 194.07 170.109 194.21C171.197 194.395 172.296 194.505 173.399 194.54C174.491 194.578 175.583 194.542 176.669 194.43C177.763 194.402 178.835 194.118 179.799 193.6C181.381 192.448 182.737 191.014 183.799 189.37C185.065 187.69 186.11 185.855 186.909 183.91C186.909 183.79 187.119 183.91 187.079 183.99C186.729 185.1 186.469 186.22 186.079 187.31C185.648 188.334 185.133 189.321 184.539 190.26C183.577 192.15 182.153 193.766 180.399 194.96C178.469 196.06 175.989 195.96 173.839 195.87C172.592 195.797 171.352 195.634 170.129 195.38C169.249 195.19 167.769 195.05 167.209 194.28C167.183 194.251 167.163 194.216 167.152 194.178C167.141 194.14 167.138 194.1 167.143 194.061C167.149 194.022 167.163 193.985 167.185 193.952C167.207 193.919 167.236 193.891 167.269 193.87Z" fill="#434343"/>
<path d="M133.66 356C141.3 344.427 148.8 332.76 156.16 321C163.52 309.24 170.78 297.39 177.94 285.45C179.65 282.6 181.62 279.76 182.72 276.6C183.92 273.17 183.24 269.84 182.16 266.48C180.12 260.35 177.736 254.341 175.02 248.48C172.34 242.57 169.45 236.76 166.61 230.93C163.77 225.1 160.8 219.34 158.61 213.26C156.61 207.45 155.8 201.43 157.36 195.41C158.92 189.39 162.28 184.07 165.79 179.06C166.71 177.74 167.66 176.43 168.59 175.06C168.66 174.96 168.81 175.06 168.74 175.18C164.87 180.4 161.1 185.93 158.83 192.06C157.669 195.082 157.021 198.275 156.91 201.51C156.891 204.793 157.401 208.059 158.42 211.18C160.3 217.26 163.27 223.01 166.04 228.73C168.81 234.45 171.77 240.37 174.5 246.26C177.316 252.188 179.819 258.26 182 264.45C182.93 267.2 184 270.08 183.92 273.03C183.85 276.26 182.31 279.17 180.71 281.89C173.71 293.74 166.54 305.45 159.24 317.09C151.94 328.73 144.43 340.37 136.83 351.89L133.95 356.24C133.8 356.42 133.54 356.21 133.66 356Z" fill="#434343"/>
<path d="M217.51 137.47C221.84 146.97 243.71 160.06 253.95 161.47C261.31 162.47 283.69 162.83 291.36 161.66C300.36 160.28 293.48 136.03 288.17 136.66C273.57 138.36 261.17 140.26 257.27 140.26C252.51 140.26 226.76 132 223.66 130.83C216.06 128 215.06 132.08 217.51 137.47Z" fill="#EB9481"/>
<path d="M217.65 140C223.13 148.11 241.34 161.37 241.34 161.37L243.87 155.77L252.24 137.25C252.24 137.25 235.51 132 224.5 129.6C223.204 129.305 221.886 129.118 220.56 129.04C213.53 128.66 212.92 133 217.65 140Z" fill="#A6A6A6"/>
<path d="M217.65 140C223.13 148.11 241.34 161.37 241.34 161.37L243.87 155.77C237.08 147.88 226.59 135.93 220.56 129.06C213.53 128.66 212.92 133 217.65 140Z" fill="#434343"/>
<path d="M238.06 157.61C239.45 154.2 245.63 140.47 247.17 137.61C247.27 137.41 247.43 137.43 247.34 137.61C244.659 144.438 241.608 151.114 238.2 157.61C238.16 157.73 238 157.69 238.06 157.61Z" fill="#434343"/>
<path d="M285.49 136.91C294.37 135.75 305.36 133.76 314.67 137.71C315.716 138.12 316.593 138.87 317.16 139.84C321.36 141.54 321.82 144.03 321.82 144.03C325.25 146.81 325.37 149.43 325.37 149.43C325.37 149.43 330.29 151.43 329.54 154.65C328.72 158.21 321.98 154.65 317.08 154.94C305.83 155.64 290.08 159.77 286.83 160.29L285.49 136.91Z" fill="#EB9481"/>
<path d="M304.78 147.39C308.07 147.165 311.371 147.165 314.66 147.39C318.242 147.839 321.786 148.558 325.26 149.54C325.283 149.548 325.307 149.547 325.329 149.536C325.351 149.526 325.367 149.508 325.375 149.485C325.383 149.462 325.382 149.438 325.371 149.416C325.361 149.395 325.343 149.378 325.32 149.37C318.793 146.809 311.688 146.09 304.78 147.29C304.62 147.27 304.62 147.4 304.78 147.39Z" fill="#434343"/>
<path d="M302.689 137C308.179 137.28 311.609 138.16 317.129 139.82V139.76C311.049 137.22 308.559 136.98 302.659 136.76C302.469 136.84 302.479 137 302.689 137Z" fill="#434343"/>
<path d="M303.58 156.64C302.15 157.31 302.5 158.06 305.23 158.69C307.96 159.32 319.31 159.51 318.91 163.47C318.51 167.43 302.5 166.93 298.03 165.53C293.56 164.13 286.83 160.29 286.83 160.29C290 159.76 297.44 157.75 303.58 156.64Z" fill="#EB9481"/>
<path d="M229.4 152.61C229.33 154.32 229.17 156.06 228.93 157.79C228.93 157.72 228.93 157.66 229 157.6C229.33 156.7 229.66 155.78 230.06 154.91C230.06 154.91 230.16 154.91 230.15 154.91C229.958 155.863 229.67 156.795 229.29 157.69C229.11 158.12 228.94 158.54 228.75 158.96C228.63 159.73 228.49 160.49 228.34 161.25C228.04 162.68 226.69 168.76 226.34 169.79C226.28 170 226.02 169.95 226.04 169.71C226.11 168.59 227.24 162.26 227.47 160.82C227.917 158.04 228.514 155.286 229.26 152.57C229.31 152.52 229.41 152.56 229.4 152.61Z" fill="#434343"/>
<path d="M219 198.08C216.33 199.45 212.89 201.58 197.39 198.53C196.39 198.33 195.45 198.09 194.47 197.8C179.94 193.44 162.47 176.35 161.52 175.14C161.52 175.14 184.61 137.71 214.14 125.94C217.79 124.49 223.83 127.29 227.14 130.78C228.33 132.03 230.92 141.22 229.93 148.66C228.94 156.1 221.66 196.71 219 198.08Z" fill="#A6A6A6"/>
<path d="M216.919 148.32C217.031 149.902 216.809 151.489 216.269 152.98C216.142 151.398 216.364 149.807 216.919 148.32Z" fill="white"/>
<path d="M206.849 173.81C206.913 174.597 206.886 175.389 206.769 176.17C206.673 176.957 206.482 177.729 206.199 178.47C206.13 177.68 206.157 176.884 206.279 176.1C206.382 175.317 206.573 174.549 206.849 173.81Z" fill="white"/>
<path d="M189.739 154.54C189.851 156.125 189.63 157.716 189.089 159.21C188.963 157.625 189.185 156.031 189.739 154.54Z" fill="white"/>
<path d="M223.509 172.51C223.573 173.3 223.546 174.096 223.429 174.88C223.333 175.667 223.142 176.439 222.859 177.18C222.791 176.39 222.817 175.594 222.939 174.81C223.041 174.024 223.232 173.252 223.509 172.51Z" fill="white"/>
<path d="M201.539 151.24C202.326 151.173 203.118 151.197 203.899 151.31C204.686 151.41 205.459 151.605 206.199 151.89C204.617 152.004 203.029 151.782 201.539 151.24Z" fill="white"/>
<path d="M182.119 169.65C183.701 169.539 185.288 169.76 186.779 170.3C185.197 170.427 183.606 170.205 182.119 169.65Z" fill="white"/>
<path d="M205 189.58C206.582 189.466 208.17 189.688 209.66 190.23C208.078 190.355 206.488 190.133 205 189.58Z" fill="white"/>
<path d="M176.129 182.34C177.711 182.229 179.298 182.45 180.789 182.99C179.207 183.115 177.616 182.893 176.129 182.34Z" fill="white"/>
<path d="M216.77 130.4C218.351 130.289 219.939 130.51 221.43 131.05C219.848 131.162 218.26 130.94 216.77 130.4Z" fill="white"/>
<path d="M211.12 136.78C210.615 137.388 210.037 137.932 209.4 138.4C208.781 138.879 208.11 139.288 207.4 139.62C207.903 139.016 208.473 138.473 209.1 138C209.726 137.519 210.404 137.11 211.12 136.78Z" fill="white"/>
<path d="M180.33 154.91C179.818 155.512 179.237 156.053 178.6 156.52C177.986 157.008 177.314 157.418 176.6 157.74C177.114 157.14 177.694 156.6 178.33 156.13C178.944 155.644 179.616 155.234 180.33 154.91Z" fill="white"/>
<path d="M218.779 163.09C218.267 163.696 217.687 164.239 217.049 164.71C216.434 165.196 215.762 165.606 215.049 165.93C215.56 165.324 216.141 164.781 216.779 164.31C217.397 163.829 218.068 163.419 218.779 163.09Z" fill="white"/>
<path d="M193.88 178.77C193.369 179.376 192.788 179.919 192.15 180.39C191.535 180.875 190.863 181.284 190.15 181.61C190.662 181.004 191.243 180.461 191.88 179.99C192.499 179.509 193.17 179.099 193.88 178.77Z" fill="white"/>
<path d="M228.32 141.67C227.808 142.276 227.228 142.819 226.59 143.29C225.97 143.769 225.299 144.178 224.59 144.51C225.101 143.904 225.682 143.361 226.32 142.89C226.936 142.405 227.607 141.996 228.32 141.67Z" fill="white"/>
<path d="M227.799 159.84C227.193 159.328 226.65 158.748 226.179 158.11C225.692 157.496 225.283 156.824 224.959 156.11C225.567 156.616 226.111 157.193 226.579 157.83C227.057 158.454 227.466 159.128 227.799 159.84Z" fill="white"/>
<path d="M172.299 172.36C171.693 171.848 171.15 171.268 170.679 170.63C170.198 170.012 169.788 169.341 169.459 168.63C170.065 169.142 170.608 169.722 171.079 170.36C171.564 170.976 171.973 171.647 172.299 172.36Z" fill="white"/>
<path d="M221.049 187.25C220.441 186.744 219.897 186.167 219.429 185.53C218.95 184.91 218.541 184.24 218.209 183.53C218.815 184.042 219.358 184.622 219.829 185.26C220.312 185.874 220.721 186.542 221.049 187.25Z" fill="white"/>
<path d="M196.619 144.8C196.014 144.292 195.47 143.715 194.999 143.08C194.522 142.459 194.113 141.788 193.779 141.08C194.387 141.586 194.931 142.163 195.399 142.8C195.876 143.421 196.285 144.092 196.619 144.8Z" fill="white"/>
<path d="M197.049 195.73C196.443 195.218 195.9 194.638 195.429 194C194.949 193.381 194.54 192.71 194.209 192C194.817 192.506 195.361 193.083 195.829 193.72C196.31 194.342 196.719 195.016 197.049 195.73Z" fill="white"/>
<path d="M201.199 165.69C200.599 165.176 200.059 164.595 199.589 163.96C199.101 163.347 198.691 162.675 198.369 161.96C198.972 162.472 199.512 163.052 199.979 163.69C200.465 164.305 200.875 164.976 201.199 165.69Z" fill="white"/>
<path d="M221.731 140.75C217.961 140.05 214.421 132.26 213.971 127.02C213.971 126.66 215.731 123.81 217.741 120.24C218.961 118.07 220.251 115.62 221.281 113.3C221.491 112.83 222.721 114.42 222.721 114.42L225.401 116.42L234.251 123.21C232.143 125.739 230.353 128.516 228.921 131.48C228.779 131.801 228.672 132.136 228.601 132.48C228.597 132.537 228.597 132.593 228.601 132.65C228.051 134.63 225.361 141.42 221.731 140.75Z" fill="#EB9481"/>
<path d="M228.6 132.53C228.596 132.587 228.596 132.643 228.6 132.7C228.075 132.546 227.563 132.349 227.07 132.11C217.38 127.57 221.65 114.59 221.65 114.59L225.45 116.47L234.3 123.26C232.193 125.789 230.403 128.566 228.97 131.53C228.811 131.849 228.687 132.184 228.6 132.53Z" fill="#434343"/>
<path d="M244.42 95.58C244.42 95.58 248.85 98.39 248.87 103.39C248.89 108.39 246.87 113.28 246.45 113.46C246.03 113.64 244.42 95.58 244.42 95.58Z" fill="#434343"/>
<path d="M222.44 98.18C219.78 103.43 219.92 119.98 223.24 124.24C228.06 130.42 237.34 132.55 242.95 126.44C248.38 120.52 247.82 98.96 243.95 94.94C238.32 89 226.38 90.41 222.44 98.18Z" fill="#EB9481"/>
<path d="M236.56 111.43C236.56 111.43 236.47 111.49 236.48 111.53C236.54 112.66 236.42 113.96 235.41 114.36C235.41 114.36 235.41 114.43 235.41 114.42C236.66 114.22 236.8 112.49 236.56 111.43Z" fill="#434343"/>
<path d="M235.53 110.28C233.71 110.18 233.65 113.82 235.34 113.91C237.03 114 237.05 110.36 235.53 110.28Z" fill="#434343"/>
<path d="M242.731 111.39C242.731 111.39 242.821 111.39 242.821 111.49C242.761 112.62 242.891 113.92 243.911 114.31C243.911 114.31 243.911 114.38 243.911 114.37C242.651 114.18 242.501 112.45 242.731 111.39Z" fill="#434343"/>
<path d="M243.76 110.23C245.57 110.12 245.66 113.76 243.98 113.86C242.3 113.96 242.24 110.32 243.76 110.23Z" fill="#434343"/>
<path d="M234.39 107.51C234.868 107.374 235.339 107.214 235.8 107.03C236.326 106.935 236.804 106.668 237.16 106.27C237.247 106.124 237.283 105.954 237.263 105.786C237.243 105.618 237.168 105.461 237.05 105.34C236.78 105.134 236.459 105.005 236.122 104.964C235.784 104.924 235.442 104.974 235.13 105.11C234.455 105.291 233.871 105.715 233.49 106.3C233.414 106.439 233.38 106.597 233.391 106.756C233.402 106.914 233.458 107.066 233.553 107.193C233.647 107.321 233.777 107.418 233.925 107.474C234.074 107.53 234.235 107.543 234.39 107.51Z" fill="#434343"/>
<path d="M245.001 109.12C244.514 109.011 244.034 108.878 243.561 108.72C243.034 108.65 242.545 108.408 242.171 108.03C242.074 107.891 242.028 107.723 242.039 107.555C242.05 107.386 242.117 107.226 242.231 107.1C242.489 106.88 242.801 106.733 243.135 106.674C243.47 106.616 243.813 106.649 244.131 106.77C244.815 106.912 245.421 107.304 245.831 107.87C245.916 108.004 245.961 108.16 245.96 108.319C245.959 108.478 245.911 108.633 245.823 108.766C245.735 108.898 245.611 109.002 245.465 109.065C245.318 109.128 245.157 109.147 245.001 109.12Z" fill="#434343"/>
<path d="M233.999 122.12C234.269 122.39 234.529 122.75 234.939 122.79C235.36 122.79 235.775 122.701 236.159 122.53C236.159 122.53 236.229 122.53 236.159 122.59C235.996 122.81 235.775 122.981 235.521 123.085C235.268 123.189 234.99 123.222 234.719 123.18C234.491 123.118 234.286 122.99 234.129 122.812C233.973 122.634 233.872 122.415 233.839 122.18C233.831 122.159 233.832 122.135 233.842 122.115C233.851 122.094 233.868 122.078 233.889 122.07C233.911 122.062 233.934 122.063 233.955 122.072C233.975 122.082 233.991 122.099 233.999 122.12Z" fill="#434343"/>
<path d="M240.539 117.3C240.539 117.3 240.589 118.98 240.539 119.77C239.003 119.607 237.451 119.661 235.929 119.93C235.569 120.01 235.609 119.72 236.019 119.53C237.245 118.97 238.61 118.789 239.939 119.01C240.019 118.8 239.809 116.41 239.939 116.42C240.544 116.539 241.13 116.741 241.679 117.02C241.679 113.5 241.119 110.02 241.169 106.5C241.169 106.38 241.359 106.36 241.379 106.5C242.09 110.224 242.425 114.009 242.379 117.8C242.389 118.23 240.839 117.46 240.539 117.3Z" fill="#434343"/>
<path d="M238.29 119.17C237.891 120.219 237.152 121.103 236.19 121.68C234.68 122.29 234.19 120.92 235.71 119.68C236.507 119.277 237.4 119.101 238.29 119.17Z" fill="#434343"/>
<path d="M236.719 121.37C236.559 121.5 236.38 121.605 236.189 121.68C234.799 122.24 234.249 121.13 235.369 120.01C236.129 120.07 236.999 120.35 236.719 121.37Z" fill="#FF99BA"/>
<path d="M221.68 112.33C223.51 112.89 225.61 107.39 226.21 105.33C226.73 103.47 227.33 97.56 227.42 97.15C227.51 96.74 235.42 102.38 240 101.04C244.58 99.7 247.69 95.55 247.76 93.62C247.83 91.69 242.1 86.79 237.15 86.54C232.2 86.29 225.49 92.54 225.49 92.54C226.3 91.6202 227.036 90.6371 227.69 89.6C227.61 89.38 224.41 90.66 223.82 92.94C223.82 92.94 224.46 90.07 224.22 90.02C223.98 89.97 221.49 92.42 222.05 94.28C222.05 94.28 219.17 96.77 218.91 99.5C218.65 102.23 219.53 111.67 221.68 112.33Z" fill="#434343"/>
<path d="M243.281 100C241.918 100.739 240.452 101.265 238.931 101.56C237.223 101.712 235.505 101.437 233.931 100.76C232.344 100.147 230.871 99.2754 229.571 98.18C228.421 97.24 227.391 96.09 226.161 95.25C225.851 95.03 225.501 95.48 225.691 95.76C227.743 98.6586 230.674 100.819 234.051 101.92C235.619 102.431 237.293 102.527 238.909 102.197C240.525 101.868 242.028 101.124 243.271 100.04C243.271 100.04 243.301 100 243.281 100Z" fill="#434343"/>
<path d="M223.59 111.84C223.59 111.84 220.75 106.08 218.19 107.01C215.63 107.94 217.19 115.91 219.82 117.37C220.142 117.578 220.503 117.72 220.881 117.785C221.259 117.851 221.647 117.839 222.02 117.752C222.394 117.664 222.746 117.502 223.055 117.274C223.364 117.047 223.624 116.76 223.82 116.43L223.59 111.84Z" fill="#EB9481"/>
<path d="M218.7 109.28C218.7 109.28 218.64 109.28 218.7 109.36C220.52 110.44 221.26 112.36 221.7 114.36C221.618 114.148 221.49 113.957 221.326 113.8C221.162 113.642 220.966 113.522 220.751 113.448C220.536 113.374 220.307 113.347 220.081 113.37C219.855 113.393 219.636 113.464 219.441 113.58C219.381 113.58 219.441 113.69 219.441 113.69C219.798 113.634 220.164 113.691 220.489 113.852C220.813 114.013 221.079 114.271 221.25 114.59C221.537 115.124 221.765 115.687 221.93 116.27C221.99 116.46 222.32 116.41 222.29 116.2C222.72 113.71 221.32 109.94 218.7 109.28Z" fill="#434343"/>
<path d="M204.84 137.56C202.84 148.89 215.12 187.06 222.99 194.19C234.7 204.79 256.35 211.76 264.2 214.03C267.62 215.03 277.08 190.96 273.62 189.37C266.21 186 243.19 178.8 241 177C238.81 175.2 225.61 156.13 219.73 145.15C211.86 130.37 205.83 131.83 204.84 137.56Z" fill="#EB9481"/>
<path d="M267.79 187.25C267.79 187.25 278.01 189.86 284.6 191.87C288.28 193 294.42 195.49 296.75 197.55C300.23 200.64 312.81 215.76 309.21 218.89C305.95 221.73 296.79 207.36 296.79 207.36C296.79 207.36 307.31 221.04 302.79 223.73C298.27 226.42 290 208.81 290 208.81C290 208.81 300.49 223.11 295.36 225.14C291.48 226.67 283.16 211.14 283.16 211.14C283.16 211.14 292.1 223.49 288.16 225.24C283.82 227.18 275.25 213.32 275.25 213.32C264.53 216.09 258.25 213.02 254.12 210.32C253.15 209.66 267.79 187.25 267.79 187.25Z" fill="#EB9481"/>
<path d="M293.449 202.39C294.749 203.95 296.069 205.53 297.219 207.2C298.369 208.87 299.459 210.59 300.449 212.36C301.79 214.649 302.864 217.085 303.649 219.62C301.929 215.22 297.899 209.17 296.749 207.5C295.599 205.83 294.529 204.1 293.389 202.43C293.359 202.39 293.419 202.35 293.449 202.39Z" fill="#434343"/>
<path d="M287.34 206.44C289.56 208.2 294.21 214.74 296 219.13C296.08 219.31 296 219.3 295.87 219.13C294.47 216.96 288.791 208.56 287.291 206.47C287.261 206.44 287.31 206.41 287.34 206.44Z" fill="#434343"/>
<path d="M281.47 209C284.228 211.893 286.407 215.288 287.89 219C287.96 219.18 287.82 219.15 287.71 219C285.64 215.63 284.04 213 281.36 209.09C281.32 209 281.41 208.91 281.47 209Z" fill="#434343"/>
<path d="M216.001 138.39C206.871 125.48 201.411 130.26 203.241 144.28C204.961 157.39 209.551 173.01 209.551 173.01L232.551 161.85C232.551 161.85 221.811 146.66 216.001 138.39Z" fill="#A6A6A6"/>
<path d="M221.549 143.47C221.852 144.199 222.07 144.961 222.199 145.74C222.34 146.522 222.39 147.317 222.349 148.11C222.049 147.377 221.835 146.612 221.709 145.83C221.561 145.053 221.507 144.26 221.549 143.47Z" fill="white"/>
<path d="M207.92 151.32C209.388 150.723 210.967 150.45 212.55 150.52C211.82 150.82 211.059 151.035 210.28 151.16C209.503 151.308 208.71 151.362 207.92 151.32Z" fill="white"/>
<path d="M208.509 131.24C207.89 132.701 206.966 134.014 205.799 135.09C206.418 133.629 207.342 132.316 208.509 131.24Z" fill="white"/>
<path d="M227.999 157.35C227.695 158.081 227.31 158.776 226.849 159.42C226.401 160.072 225.877 160.67 225.289 161.2C225.908 159.739 226.832 158.426 227.999 157.35Z" fill="white"/>
<path d="M212 165.18C211.267 164.88 210.572 164.494 209.93 164.03C209.278 163.582 208.68 163.058 208.15 162.47C209.612 163.089 210.924 164.013 212 165.18Z" fill="white"/>
<path d="M219 142.28C220.23 143.97 221.5 145.62 222.76 147.28C222.44 146.44 222.16 145.59 221.92 144.73H221.98C222.23 145.39 222.52 146.04 222.76 146.73L223.12 147.73C223.151 147.798 223.177 147.868 223.2 147.94C224.2 149.23 225.2 150.52 226.12 151.84C227.25 153.42 228.34 155.02 229.44 156.62C230.54 158.22 231.65 160.21 232.84 161.82C232.95 161.96 230.84 162.82 230.61 162.93C230.38 163.04 230.26 162.85 230.48 162.78C230.7 162.71 232.38 161.68 232.4 161.66C231.3 160.04 230.03 158.55 228.88 156.98C227.73 155.41 226.59 153.84 225.48 152.25C223.23 149.01 221.17 145.65 218.93 142.4L219 142.28Z" fill="#434343"/>
<path d="M203.779 153.56C204.129 154.24 204.509 154.91 204.779 155.61L205.159 156.48C204.629 153.99 204.159 151.48 203.609 148.99C204.669 152.99 205.739 157.08 206.719 161.14C207.649 165.02 208.779 168.94 209.319 172.9C210.017 172.594 210.739 172.35 211.479 172.17C210.737 172.651 209.937 173.037 209.099 173.32C207.894 169.293 206.893 165.208 206.099 161.08C205.849 159.96 205.619 158.84 205.379 157.72C205.119 157.04 204.809 156.39 204.499 155.72C204.189 155.05 203.909 154.3 203.629 153.59C203.689 153.55 203.759 153.51 203.779 153.56Z" fill="#434343"/>
<path d="M209.889 169.15C213.089 167.35 226.459 160.43 229.449 159.15C229.659 159.06 229.769 159.15 229.559 159.29C223.213 162.978 216.67 166.316 209.959 169.29C209.879 169.31 209.799 169.2 209.889 169.15Z" fill="#434343"/>
<path d="M576.321 432.05H271.641L315.691 182.2H620.371L576.321 432.05Z" fill="#A6A6A6"/>
<path d="M419.969 156.32H320.259L315.689 182.2H422.399L419.969 156.32Z" fill="#A6A6A6"/>
<g opacity="0.1">
<path d="M576.321 432.05H271.641L315.691 182.2H620.371L576.321 432.05Z" fill="black"/>
<path d="M419.971 156.32H320.261L315.691 182.2H422.401L419.971 156.32Z" fill="black"/>
</g>
<path d="M309.5 166.88C308.833 164.018 308.833 161.042 309.5 158.18C310.167 161.042 310.167 164.018 309.5 166.88Z" fill="#434343"/>
<path d="M300.639 169.44C299.621 168.384 298.744 167.201 298.029 165.92C297.28 164.666 296.692 163.322 296.279 161.92C297.3 162.97 298.178 164.15 298.889 165.43C299.637 166.689 300.225 168.036 300.639 169.44Z" fill="#434343"/>
<path d="M294.239 176.09C291.429 175.236 288.853 173.747 286.709 171.74C288.111 172.147 289.455 172.732 290.709 173.48C291.99 174.199 293.176 175.076 294.239 176.09Z" fill="#434343"/>
<path d="M291.999 185.05C289.137 185.717 286.161 185.717 283.299 185.05C286.161 184.383 289.137 184.383 291.999 185.05Z" fill="#434343"/>
<path d="M294.6 193.91C293.54 194.923 292.357 195.8 291.08 196.52C289.826 197.268 288.482 197.853 287.08 198.26C288.136 197.242 289.319 196.365 290.6 195.65C291.852 194.899 293.197 194.314 294.6 193.91Z" fill="#434343"/>
<path d="M301.241 200.3C300.389 203.114 298.901 205.694 296.891 207.84C297.298 206.436 297.886 205.092 298.641 203.84C299.353 202.554 300.227 201.365 301.241 200.3Z" fill="#434343"/>
<path d="M310.2 202.51C310.549 203.933 310.717 205.395 310.7 206.86C310.722 208.326 310.553 209.788 310.2 211.21C309.842 209.789 309.673 208.326 309.7 206.86C309.683 205.395 309.851 203.933 310.2 202.51Z" fill="#434343"/>
<path d="M319.061 200C320.079 201.056 320.956 202.239 321.671 203.52C322.422 204.772 323.007 206.117 323.411 207.52C321.4 205.374 319.912 202.794 319.061 199.98V200Z" fill="#434343"/>
<path d="M325.449 193.3C326.853 193.704 328.197 194.289 329.449 195.04C330.73 195.754 331.913 196.632 332.969 197.65C331.566 197.246 330.221 196.661 328.969 195.91C327.688 195.195 326.505 194.318 325.449 193.3Z" fill="#434343"/>
<path d="M327.66 184.34C330.525 183.673 333.505 183.673 336.37 184.34C333.505 185.007 330.525 185.007 327.66 184.34Z" fill="#434343"/>
<path d="M325.1 175.48C326.159 174.468 327.341 173.594 328.62 172.88C329.87 172.121 331.215 171.533 332.62 171.13C330.474 173.14 327.894 174.629 325.08 175.48H325.1Z" fill="#434343"/>
<path d="M318.449 169.09C318.861 167.69 319.445 166.346 320.189 165.09C320.904 163.809 321.781 162.626 322.799 161.57C322.395 162.973 321.811 164.318 321.059 165.57C320.345 166.851 319.467 168.034 318.449 169.09Z" fill="#434343"/>
<path d="M575.87 432.05H270.54L227.18 191.27H532.52L575.87 432.05Z" fill="#A6A6A6"/>
<path d="M332.989 338.46C339.997 338.46 345.679 332.778 345.679 325.77C345.679 318.761 339.997 313.08 332.989 313.08C325.98 313.08 320.299 318.761 320.299 325.77C320.299 332.778 325.98 338.46 332.989 338.46Z" fill="#434343"/>
<path d="M433.309 338.46C440.318 338.46 445.999 332.778 445.999 325.77C445.999 318.761 440.318 313.08 433.309 313.08C426.301 313.08 420.619 318.761 420.619 325.77C420.619 332.778 426.301 338.46 433.309 338.46Z" fill="#434343"/>
<path d="M401.38 340.49L400.68 339.16C400.62 339.04 394.06 326.92 380.87 326.92C368.87 326.92 365.87 338.33 365.79 338.82L365.43 340.27L362.52 339.57L362.87 338.11C362.87 337.97 366.45 323.92 380.87 323.92C395.87 323.92 403.04 337.2 403.34 337.77L404.04 339.09L401.38 340.49Z" fill="#434343"/>
<path d="M555.71 324.8L555.5 323.8C556.15 323.66 556.79 323.51 557.43 323.34L557.68 324.34C557 324.51 556.37 324.66 555.71 324.8Z" fill="#434343"/>
<path d="M561.551 323.19L561.231 322.25C562.481 321.82 563.731 321.35 564.941 320.84L565.331 321.76C564.101 322.28 562.831 322.76 561.551 323.19ZM569.001 320L568.551 319.12C569.721 318.51 570.891 317.85 572.001 317.12L572.521 317.97C571.381 318.76 570.191 319.43 569.001 320ZM575.881 315.77L575.291 314.96C576.371 314.17 577.411 313.34 578.391 312.49L579.051 313.24C578.001 314.15 577.001 315 575.871 315.81L575.881 315.77ZM581.981 310.45L581.251 309.76C582.171 308.76 583.041 307.76 583.841 306.76L584.631 307.37C583.801 308.47 582.911 309.5 582.001 310.49L581.981 310.45ZM586.931 304.05L586.081 303.52C586.772 302.403 587.387 301.24 587.921 300.04L588.841 300.45C588.275 301.701 587.634 302.917 586.921 304.09L586.931 304.05ZM590.241 296.63L589.241 296.35C589.606 295.095 589.877 293.815 590.051 292.52L591.051 292.65C590.885 294.01 590.611 295.354 590.231 296.67L590.241 296.63ZM591.351 288.63H590.351V288.34C590.351 287.13 590.281 285.9 590.161 284.69L591.161 284.59C591.292 285.836 591.359 287.087 591.361 288.34L591.351 288.63ZM589.551 280.8C589.282 279.511 588.948 278.236 588.551 276.98L589.551 276.68C589.961 277.98 590.311 279.3 590.551 280.59L589.551 280.8ZM587.181 273.27C586.701 272.09 586.181 270.88 585.541 269.66L586.441 269.21C587.051 270.45 587.611 271.69 588.101 272.89L587.181 273.27ZM583.681 266.14C583.061 265.05 582.381 263.9 581.681 262.72L582.531 262.19C583.261 263.38 583.951 264.54 584.531 265.65L583.681 266.14ZM579.501 259.35C578.771 258.25 578.031 257.14 577.271 256.03L578.101 255.47C578.861 256.58 579.601 257.69 580.331 258.81L579.501 259.35ZM575.001 252.73C574.251 251.63 573.491 250.52 572.751 249.42L573.581 248.86C574.321 249.96 575.071 251.07 575.821 252.16L575.001 252.73ZM570.531 246.07C569.801 244.95 569.091 243.81 568.391 242.67L569.241 242.15C569.941 243.29 570.651 244.41 571.371 245.53L570.531 246.07ZM566.361 239.2C565.681 237.99 565.051 236.79 564.481 235.64L565.381 235.19C565.941 236.33 566.571 237.51 567.231 238.71L566.361 239.2ZM562.811 232C562.281 230.75 561.811 229.48 561.371 228.24L562.371 227.92C562.791 229.13 563.261 230.38 563.781 231.61L562.811 232ZM560.211 224.37C559.881 223.07 559.591 221.74 559.371 220.37L560.371 220.21C560.591 221.49 560.861 222.79 561.191 224.07L560.211 224.37ZM558.871 216.37C558.771 215.14 558.721 213.9 558.721 212.66V212.33H559.721V212.65C559.721 213.86 559.721 215.08 559.871 216.28L558.871 216.37ZM559.871 208.37L558.871 208.27C558.871 208 558.921 207.72 558.951 207.43C559.071 206.36 559.221 205.29 559.401 204.27L560.401 204.44C560.231 205.44 560.081 206.49 559.961 207.54C560.001 207.85 560.001 208.12 559.921 208.4L559.871 208.37ZM561.261 200.59L560.261 200.32C560.631 199 561.061 197.71 561.541 196.48L562.471 196.84C562.016 198.078 561.629 199.34 561.311 200.62L561.261 200.59ZM611.091 194.76C610.531 194.76 609.951 194.68 609.381 194.6C608.601 194.49 607.821 194.36 607.051 194.21L607.251 193.21C607.991 193.35 608.761 193.48 609.521 193.59C610.061 193.66 610.611 193.71 611.141 193.74L611.091 194.76ZM615.201 194.45L614.991 193.45C616.246 193.191 617.449 192.724 618.551 192.07L619.071 192.92C617.893 193.649 616.602 194.176 615.251 194.48L615.201 194.45ZM564.141 193.26L563.251 192.79C563.888 191.597 564.592 190.442 565.361 189.33L566.181 189.9C565.45 190.989 564.785 192.121 564.191 193.29L564.141 193.26ZM603.141 193.2C601.85 192.79 600.581 192.313 599.341 191.77L599.751 190.85C600.953 191.384 602.185 191.848 603.441 192.24L603.141 193.2ZM622.141 190.08L621.311 189.52C622.023 188.487 622.444 187.282 622.531 186.03L623.531 186.1C623.446 187.535 622.976 188.92 622.171 190.11L622.141 190.08ZM595.741 189.93C594.57 189.25 593.439 188.505 592.351 187.7L592.941 186.9C594 187.681 595.101 188.402 596.241 189.06L595.741 189.93ZM568.641 186.81L567.901 186.14C568.806 185.133 569.771 184.181 570.791 183.29L571.451 184.04C570.47 184.918 569.541 185.853 568.671 186.84L568.641 186.81ZM589.231 185.12C588.235 184.203 587.29 183.231 586.401 182.21L587.151 181.55C588.016 182.542 588.934 183.486 589.901 184.38L589.231 185.12ZM621.781 182.41C621.208 181.267 620.416 180.248 619.451 179.41L620.111 178.66C621.173 179.579 622.046 180.697 622.681 181.95L621.781 182.41ZM574.561 181.62L573.991 180.8C575.11 180.036 576.268 179.332 577.461 178.69L577.931 179.57C576.782 180.205 575.667 180.899 574.591 181.65L574.561 181.62ZM583.901 179.02C583.521 178.48 583.151 177.93 582.801 177.36L581.501 177.87L581.121 176.95L582.271 176.49C582.091 176.19 581.911 175.89 581.741 175.59L582.611 175.1C582.811 175.45 583.011 175.8 583.221 176.1C583.781 175.9 584.351 175.71 584.931 175.53L585.221 176.53C584.731 176.68 584.221 176.84 583.761 177.01C584.071 177.5 584.391 178.01 584.761 178.44L583.901 179.02ZM616.231 177.3C615.263 176.818 614.26 176.41 613.231 176.08L612.571 175.87L612.861 174.87L613.541 175.09C614.612 175.431 615.655 175.856 616.661 176.36L616.231 177.3ZM589.051 175.51L588.841 174.51C590.131 174.22 591.471 173.98 592.841 173.79L592.991 174.79C591.671 175 590.361 175.25 589.081 175.54L589.051 175.51ZM608.751 174.97C607.501 174.75 606.181 174.58 604.831 174.46L604.911 173.46C606.301 173.58 607.651 173.75 608.911 173.98L608.751 174.97ZM596.901 174.39L596.831 173.39C598.021 173.32 599.211 173.28 600.391 173.28H600.881V174.28H600.401C599.271 174.31 598.091 174.34 596.931 174.42L596.901 174.39ZM580.001 172C579.461 170.78 579.001 169.51 578.551 168.22L579.551 167.91C579.971 169.17 580.441 170.41 580.961 171.6L580.001 172ZM577.471 164.32C577.171 163.03 576.921 161.69 576.731 160.32L577.731 160.18C577.921 161.5 578.161 162.81 578.451 164.08L577.471 164.32ZM576.351 156.32C576.301 155.42 576.271 154.5 576.271 153.58C576.271 153.15 576.271 152.71 576.271 152.28H577.271C577.271 152.71 577.271 153.13 577.271 153.56C577.271 154.46 577.271 155.37 577.341 156.24L576.351 156.32ZM577.541 148.32L576.541 148.22C576.681 146.9 576.871 145.55 577.101 144.22L578.101 144.39C577.831 145.72 577.641 147 577.511 148.34L577.541 148.32ZM578.911 140.51L577.911 140.27C578.231 138.98 578.601 137.68 579.011 136.38L580.011 136.69C579.561 138 579.191 139.27 578.881 140.53L578.911 140.51ZM581.311 132.94L580.381 132.58C580.871 131.33 581.381 130.08 581.991 128.87L582.891 129.31C582.291 130.51 581.761 131.73 581.281 133L581.311 132.94ZM584.751 125.81L583.881 125.3C584.561 124.15 585.291 123 586.051 121.9L586.871 122.47C586.091 123.57 585.381 124.69 584.721 125.83L584.751 125.81ZM589.261 119.3L588.481 118.67C589.321 117.67 590.221 116.61 591.151 115.67L591.871 116.36C590.931 117.3 590.051 118.3 589.231 119.32L589.261 119.3ZM594.701 113.54L594.031 112.8C595.031 111.91 596.031 111.03 597.101 110.18L597.721 110.97C596.651 111.82 595.631 112.69 594.671 113.56L594.701 113.54ZM600.911 108.6L600.341 107.77C601.431 107.02 602.571 106.28 603.731 105.58L604.241 106.43C603.081 107.14 602.001 107.87 600.881 108.62L600.911 108.6ZM607.701 104.47L607.231 103.59C608.411 102.96 609.631 102.36 610.851 101.8L611.271 102.71C610.001 103.28 608.831 103.88 607.671 104.49L607.701 104.47ZM614.931 101.15L614.561 100.21C615.821 99.72 617.091 99.21 618.351 98.84L618.671 99.84C617.401 100.22 616.141 100.68 614.901 101.17L614.931 101.15Z" fill="#434343"/>
<path d="M622.641 98.62L622.391 97.62C623.631 97.3 624.391 97.16 624.391 97.16L624.571 98.16C624.571 98.16 623.851 98.31 622.641 98.62Z" fill="#434343"/>
<path d="M640.321 92.16C637.771 84.26 620.691 87.1 624.021 97.43C627.351 107.76 642.871 100.07 640.321 92.16Z" fill="#434343"/>
<path d="M614.729 89C614.859 85.53 619.679 82.86 626.499 84.09C633.319 85.32 639.729 89.92 639.729 89.92C639.729 89.92 632.999 94 626.109 94.75C619.219 95.5 614.599 92.46 614.729 89Z" fill="#EBEBEB"/>
<path d="M639.729 89.9C636.189 89.9 632.659 89.8 629.129 89.69C625.599 89.58 622.059 89.4 618.529 89.12C622.069 89.12 625.609 89.21 629.139 89.32C632.669 89.43 636.209 89.61 639.729 89.9Z" fill="#434343"/>
<path d="M621.58 85.91C623.59 86.8714 625.485 88.0555 627.23 89.44C626.224 88.9681 625.249 88.4337 624.31 87.84C623.363 87.2504 622.452 86.606 621.58 85.91Z" fill="#434343"/>
<path d="M630.85 89.57C629.041 91.0361 627.08 92.3034 625 93.35C626.818 91.8821 628.79 90.6147 630.88 89.57H630.85Z" fill="#434343"/>
<path d="M631.881 87.62C632.89 88.1045 633.773 88.8165 634.461 89.7C633.956 89.4618 633.483 89.163 633.051 88.81C632.617 88.4592 632.224 88.06 631.881 87.62Z" fill="#434343"/>
<path d="M621.231 109.55C623.361 112.29 628.831 111.63 633.641 106.65C638.451 101.67 641.001 94.18 641.001 94.18C641.001 94.18 633.121 94.78 627.111 98.18C621.101 101.58 619.091 106.8 621.231 109.55Z" fill="#EBEBEB"/>
<path d="M641 94.18C638.12 96.18 635.32 98.4 632.51 100.55C629.7 102.7 626.95 104.92 624.26 107.21C627.14 105.21 629.94 103 632.74 100.85C635.54 98.7 638.27 96.48 641 94.18Z" fill="#434343"/>
<path d="M628.58 108C629.115 107.029 629.592 106.027 630.01 105C630.436 103.97 630.796 102.915 631.09 101.84C630.554 102.811 630.076 103.812 629.66 104.84C629.239 105.871 628.878 106.926 628.58 108Z" fill="#434343"/>
<path d="M634 99.64C631.66 99.5149 629.314 99.639 627 100.01C628.166 100.08 629.334 100.08 630.5 100.01C631.673 99.9528 632.841 99.8293 634 99.64Z" fill="#434343"/>
<path d="M635.93 100.63C636.197 100.136 636.405 99.6125 636.55 99.07C636.698 98.5314 636.785 97.978 636.81 97.42C636.278 98.4099 635.977 99.5073 635.93 100.63Z" fill="#434343"/>
<path d="M640.319 92.16C639.754 92.3434 639.148 92.355 638.576 92.1935C638.005 92.032 637.494 91.7045 637.109 91.2526C636.724 90.8007 636.482 90.2446 636.413 89.6548C636.344 89.0651 636.452 88.4681 636.722 87.9396C636.993 87.411 637.414 86.9746 637.933 86.6857C638.452 86.3968 639.044 86.2683 639.636 86.3166C640.228 86.3648 640.792 86.5876 641.257 86.9567C641.723 87.3258 642.068 87.8246 642.249 88.39C642.492 89.1459 642.425 89.9671 642.063 90.6737C641.701 91.3804 641.074 91.9148 640.319 92.16Z" fill="#434343"/>
<path d="M642.16 97.87C641.595 98.0527 640.99 98.0638 640.419 97.9022C639.848 97.7405 639.338 97.4132 638.953 96.9617C638.568 96.5102 638.326 95.9548 638.257 95.3656C638.188 94.7764 638.295 94.1799 638.564 93.6515C638.834 93.1231 639.255 92.6866 639.772 92.3971C640.29 92.1076 640.882 91.9782 641.474 92.0251C642.065 92.0721 642.629 92.2933 643.095 92.6608C643.561 93.0283 643.907 93.5257 644.09 94.09C644.212 94.4649 644.258 94.8601 644.227 95.253C644.196 95.646 644.087 96.0289 643.908 96.3799C643.729 96.731 643.482 97.0432 643.182 97.2989C642.882 97.5546 642.535 97.7487 642.16 97.87Z" fill="#434343"/>
<path d="M314.311 95.32C313.832 99.9131 312.086 104.283 309.268 107.941C306.45 111.6 302.67 114.403 298.352 116.039C294.033 117.675 289.345 118.078 284.81 117.204C280.275 116.33 276.073 114.213 272.671 111.09L260.201 112.92L266.441 102.14C265.014 98.6324 264.405 94.8457 264.661 91.0675C264.916 87.2894 266.03 83.6192 267.916 80.3357C269.802 77.0522 272.412 74.2418 275.547 72.1179C278.682 69.994 282.26 68.6126 286.009 68.0785C289.758 67.5444 293.58 67.8717 297.183 69.0355C300.787 70.1993 304.077 72.1691 306.806 74.7951C309.534 77.4212 311.628 80.6345 312.928 84.1909C314.229 87.7474 314.702 91.5534 314.311 95.32Z" fill="white"/>
<path d="M314.31 95.32C313.841 99.9108 312.111 104.282 309.31 107.95C307.942 109.805 306.292 111.435 304.42 112.78C302.589 114.176 300.569 115.304 298.42 116.13C296.27 116.977 294.011 117.515 291.71 117.73C290.56 117.833 289.404 117.857 288.25 117.8C287.093 117.77 285.939 117.65 284.8 117.44C280.205 116.594 275.935 114.486 272.47 111.35L272.76 111.44L260.31 113.35L259.4 113.49L259.86 112.69L266.06 101.89V102.32C264.597 98.7476 263.975 94.8867 264.242 91.0355C264.509 87.1844 265.658 83.4463 267.6 80.11C269.54 76.7842 272.207 73.94 275.4 71.79C278.589 69.6686 282.217 68.2966 286.011 67.7771C289.806 67.2575 293.669 67.6038 297.31 68.79C300.913 70.0158 304.197 72.0316 306.92 74.69C309.638 77.3417 311.716 80.5776 312.996 84.1521C314.277 87.7267 314.726 91.5459 314.31 95.32ZM314.31 95.32C314.714 91.5645 314.25 87.7663 312.953 84.2188C311.656 80.6712 309.561 77.4692 306.83 74.8599C304.099 72.2506 300.805 70.3038 297.202 69.1698C293.599 68.0359 289.784 67.7451 286.05 68.32C282.355 68.867 278.834 70.2561 275.76 72.38C272.713 74.5206 270.168 77.298 268.3 80.52C266.462 83.7491 265.378 87.3525 265.13 91.06C264.887 94.7926 265.488 98.5321 266.89 102L266.98 102.22L266.86 102.43L260.58 113.19L260.14 112.53L272.62 110.78H272.79L272.91 110.89C276.246 113.995 280.381 116.111 284.85 117C285.964 117.227 287.095 117.364 288.23 117.41C289.366 117.49 290.505 117.49 291.64 117.41C293.917 117.227 296.158 116.732 298.3 115.94C300.448 115.158 302.469 114.067 304.3 112.7C306.164 111.366 307.816 109.757 309.2 107.93C312.037 104.28 313.806 99.9149 314.31 95.32Z" fill="#434343"/>
<path d="M277.34 104.35C277.321 104.019 277.37 103.687 277.484 103.376C277.598 103.065 277.775 102.78 278.004 102.54C278.233 102.3 278.509 102.11 278.814 101.981C279.12 101.852 279.448 101.787 279.78 101.79C280.459 101.79 281.11 102.06 281.59 102.54C282.07 103.02 282.34 103.671 282.34 104.35C282.34 105.029 282.07 105.68 281.59 106.16C281.11 106.64 280.459 106.91 279.78 106.91C279.448 106.913 279.12 106.848 278.814 106.719C278.509 106.59 278.233 106.4 278.004 106.16C277.775 105.92 277.598 105.635 277.484 105.324C277.37 105.013 277.321 104.681 277.34 104.35ZM278.34 98.44L277.76 78.6H281.76L281.18 98.44H278.34Z" fill="#A6A6A6"/>
<path d="M286.85 104.35C286.831 104.02 286.879 103.689 286.993 103.378C287.107 103.068 287.283 102.784 287.511 102.544C287.738 102.304 288.013 102.113 288.317 101.984C288.621 101.854 288.949 101.788 289.28 101.79C289.959 101.79 290.61 102.06 291.09 102.54C291.57 103.02 291.84 103.671 291.84 104.35C291.84 105.029 291.57 105.68 291.09 106.16C290.61 106.64 289.959 106.91 289.28 106.91C288.949 106.912 288.621 106.846 288.317 106.716C288.013 106.587 287.738 106.396 287.511 106.156C287.283 105.916 287.107 105.632 286.993 105.321C286.879 105.011 286.831 104.68 286.85 104.35ZM287.85 98.44L287.3 78.6H291.3L290.72 98.44H287.85Z" fill="#A6A6A6"/>
<path d="M296.35 104.35C296.331 104.019 296.38 103.687 296.494 103.376C296.608 103.065 296.785 102.78 297.014 102.54C297.243 102.3 297.518 102.11 297.824 101.981C298.129 101.852 298.458 101.787 298.79 101.79C299.469 101.79 300.12 102.06 300.6 102.54C301.08 103.02 301.35 103.671 301.35 104.35C301.35 105.029 301.08 105.68 300.6 106.16C300.12 106.64 299.469 106.91 298.79 106.91C298.458 106.913 298.129 106.848 297.824 106.719C297.518 106.59 297.243 106.4 297.014 106.16C296.785 105.92 296.608 105.635 296.494 105.324C296.38 105.013 296.331 104.681 296.35 104.35ZM297.35 98.44L296.77 78.6H300.77L300.2 98.44H297.35Z" fill="#A6A6A6"/>
</svg>
